<svg xmlns="http://www.w3.org/2000/svg" viewBox="0 0 164 44" width="120" height="32">
  <defs>
    <linearGradient id="gradient" x1="0.33" x2="0.92" y1="0.77" y2="0.23">
      <stop offset="0" stop-color="#ec1b23"/>
      <stop offset="1" stop-color="#f6921d"/>
    </linearGradient>
  </defs>
  <path fill="url(#gradient)" d="M24.9,37.5s0,0,0,0c2.8-1.3,5.3-3.6,7.1-6.1,1.8-1.7,3.3-3.8,4.3-6.1,1.1-2.7,1-6.5,0-7.5-.3,1.2-.8,2.5-1.5,3.9-1.2-3.9-5.2-5.2-13.1-2.2-3.4,1.3-7.2,1.6-10.4,1.2,1.4-5.8,5.5-8.1,10.4-8.8,4.7-.8,5.5-4.8-1.7-9.1,2.3,3,2.9,7.5-1.6,7.5-4.9,0-10.6,3.2-12.6,8.5-2-1.4-3.1-3.4-2.7-6-2.1,5.6-1,8.1,2,8.9-.7,6.5,4.2,12.6,11.3,13.6,1.2.2,2.5.2,3.7,0-5.2-2.3-10.1-6.2-9-13.3,0,0,0,0,0-.1,3.2-.2,7.1-.8,11.3-1.3,6.3-.7,8.5,1.8,7.9,4.7-.3,1.5-.7,2.7-1.3,4.2,0,0,0,0,0,0-1,2.7-3.2,5.5-5.9,7.5-1.1.8-2.2,1.4-3.4,1.9,0,0,0,0,0,0,0,.2,0,.5,0,.7.7,3,12.1,1.8,16.6.8.6-.1,1.2-.3,1.7-.5-3.5.3-12,0-13.1-2.2Z"/>
  <path fill="#28317A" d="M161.4,6.7c-.4-.5-1-.7-1.7-.7s-1.2.2-1.6.7c-.4.5-.6,1.2-.6,2.1v14.5l-9.5-14.4c-.3-.4-.5-.8-.8-1.2-.2-.4-.5-.7-.7-.9-.2-.2-.5-.4-.8-.6-.3-.1-.7-.2-1.1-.2s-1.1.2-1.6.5c-.5.3-.8.7-1,1.2-.2.5-.3,1.1-.3,1.9,0,0,0,14.6,0,14.7,0,1.5-.9,2.6-2.7,2.6h-12.7v-6.9h10.2c.8,0,1.3-.2,1.7-.5.4-.3.5-.8.5-1.4s-.2-1-.6-1.3-.9-.5-1.7-.5h-10.2v-6h11.1c.8,0,1.4-.2,1.8-.5.4-.3.6-.8.6-1.4s-.2-1-.6-1.4c-.4-.3-1-.5-1.8-.5h-13c-.7,0-1.3.1-1.7.3-.4.2-.8.5-1,1-.2.4-.3,1-.3,1.7v17.4h-16.2l11.5-13.7c.9-1.1,1.5-1.8,1.8-2.3.3-.5.4-1.1.4-1.9,0-1.7-.9-2.5-2.7-2.5h-21.2c-.6,0-1.1.1-1.5.4-.3.1-.6.3-.8.6-.5.5-.7,1.1-.7,2.1v16.1c0,1.9-2.4,2-4-.9-.6-1-1.3-2-2.1-2.9-.8-.9-1.6-1.6-2.5-2.1,2.1-.5,3.6-1.2,4.7-2.3s1.5-2.5,1.5-4.3-.2-1.7-.5-2.5-.8-1.5-1.3-2.1c-.6-.6-1.3-1.1-2-1.4-.6-.3-1.3-.5-2.1-.6-.8,0-1.7-.1-2.8-.1h-8c-1.1,0-1.8.2-2.3.7-.5.5-.7,1.2-.7,2.3v15.3c0,1.6-1.1,2.5-3.4,2.5s-8.2,0-8.8,0c-1.3,0-2.4-.3-3.4-.9-1-.6-1.7-1.6-2.3-2.8-.5-1.3-.8-2.8-.8-4.7,0-2.8.7-5,1.8-6.6.6-.9,2.8-2.3,4.8-2.3s5.7,0,6.9,0,2.7-.4,2.7-1.9-1.3-2-2.7-2-5,0-7,0-3.1.3-4.6.9c-1.4.6-2.7,1.4-3.7,2.5-1.1,1.1-1.9,2.4-2.4,4-.6,1.5-.9,3.3-.9,5.3s.1,2.3.3,3.4c.2,1.1.6,2.1,1,3s1,1.8,1.6,2.6c.7.8,1.5,1.5,2.4,2,.9.5,1.8.9,2.9,1.1,1.1.2,2.2.4,3.5.4,5,0,12.8,0,12.8,0,2.5,0,4-1.2,4-3v-7.8h1.7c.9,0,1.6.1,2.2.4.6.2,1.1.7,1.7,1.3.6.6,1.2,1.6,1.9,2.8,0,0,2.2,3.3,3.6,5.1,1.1,1.4,2.6,1.4,3.2,1.4,1,0,3.5,0,5.5,0,.5,0,1.4-.4,1.7-.8.5-.5.7-1.3.7-2.3v-15.9s0,0,0,0c0-.9.9-2.1,2.7-2.1,4.7,0,13.4,0,13.4,0l-12.5,15c-.2.2-.4.5-.7.8-.3.3-.5.6-.6.8-.2.2-.3.4-.4.7,0,.2-.1.5-.1.8,0,.8.3,1.5.8,1.9.5.5,1.4.7,2.4.7h41.3c.6,0,1.6-.2,2.3-.9.5-.5.6-1.2.6-2.1v-13.7l9.3,14.2c.3.4.5.8.8,1.1.3.4.6.7.9,1,.3.3.6.5,1,.6.4.1.8.2,1.2.2,1.8,0,2.7-1.1,2.7-3.2V8.8c0-.9-.2-1.6-.6-2.1ZM82.1,16.5c-.8.2-1.8.3-3,.3h-4.4v-6.7h4.6c1.7,0,2.8.1,3.4.4.6.3,1.1.6,1.4,1.2.3.5.5,1.1.5,1.8s-.2,1.5-.6,2c-.4.5-1,.8-1.9,1Z"/>
  <g fill="#221E1F">
    <path d="M55.9,37.9l-1.2,1.5h-5.6l1.1-1.1h3.7l.3-.4-.3-.4h-3.7l-1.1-1.5,1.1-1.5h5.6l-1.1,1.2h-3.8l-.3.4.3.3h3.8l1.2,1.5Z"/>
    <path d="M71.8,38.2l-1.2,1.2h-4l-1.2-1.2v-2.5l1.1-1.2h4.1l1.2,1.2v2.5ZM70.3,38.2v-2.5h-3.3v2.5h3.3Z"/>
    <path d="M86.9,38.2l-1.1,1.2h-4.3v-4.9h1.5v3.7h3.9Z"/>
    <path d="M102.1,38.2l-1.1,1.2h-3.7l-1.1-1.2v-3.6h1.5v3.7h2.9v-3.7h1.6v3.6Z"/>
    <path d="M118.3,34.5l-1.1,1.2h-1.4v3.7h-1.5v-3.7h-1.4l-1.1-1.2h6.5Z"/>
    <path d="M129.2,39.4h-1.5s0-4.9,0-4.9h1.5v4.9Z"/>
    <path d="M145.3,38.2l-1.2,1.2h-4l-1.2-1.2v-2.5l1.1-1.2h4.1l1.2,1.2v2.5ZM143.7,38.2v-2.5h-3.3v2.5h3.3Z"/>
    <path d="M160.9,39.4h-1l-3.4-2.7v2.7h-1.5v-4.9h1l3.4,2.8v-2.8h1.5v4.9h0Z"/>
  </g>
</svg>